<?xml version='1.0' encoding='utf-8'?>
<!-- Generator: Adobe Illustrator 27.0.1, SVG Export Plug-In . SVG Version: 6.00 Build 0)  -->
<svg xmlns="http://www.w3.org/2000/svg" style="enable-background:new 0 0 64 64;" version="1.1" x="0px" viewBox="0 0 64 64" y="0px" xml:space="preserve" id="Layer_1" xmlns:xlink="http://www.w3.org/1999/xlink">
 <style type="text/css">
	.st0{fill:url(#SVGID_1_);}
	.st1{fill:#FFFBFC;}
</style>
 <linearGradient x1="32" gradientUnits="userSpaceOnUse" y2="1.7872" y1="62.2128" x2="32" id="SVGID_1_">
  <stop style="stop-color:#C02883" offset="8.743515e-03"/>
  <stop style="stop-color:#EA6E4A" offset="0.3503"/>
  <stop style="stop-color:#FF9F2E" offset="0.717"/>
  <stop style="stop-color:#F9CD80" offset="1"/>
 </linearGradient>
 <circle class="st0" cx="32" r="30.2" cy="32"/>
 <g>
  <g>
   <path d="M32.2,43.5c-0.4,0-0.9-0.1-1.3-0.4l-11.4-6.8c-0.8-0.5-1.2-1.3-1.2-2.2V21.5c0-0.9,0.5-1.7,1.2-2.1l0,0    l11.6-7c0.8-0.5,1.7-0.5,2.5,0l11.2,6.3c0.8,0.4,1.3,1.3,1.3,2.2v13c0,0.9-0.4,1.7-1.2,2.1l-11.4,7.2    C33.1,43.3,32.6,43.5,32.2,43.5z M20.8,21.4C20.7,21.5,20.7,21.5,20.8,21.4l0,12.7L32.1,41c0,0,0,0,0.1,0l11.4-7.2l0-13    c0,0,0,0,0-0.1l-11.2-6.3c0,0,0,0-0.1,0L20.8,21.4z" class="st1"/>
   <polygon points="30.8,42 30.7,28.6 19.5,22.1 20.8,20 33.1,27.2 33.2,42   " class="st1"/>
   <rect x="30.9" y="23" height="2.4" transform="matrix(0.8649 -0.502 0.502 0.8649 -6.9754 22.4826)" class="st1" width="14.7"/>
  </g>
  <path d="M37.5,48.8c-0.6,0-1.2-0.5-1.2-1.1c-0.1-0.7,0.4-1.3,1.1-1.3c10-1,17.6-4.8,17.6-8.9c0-2.9-3.9-5.8-10.2-7.5   c-0.7-0.2-1-0.9-0.9-1.5c0.2-0.7,0.8-1,1.5-0.9c7.5,2.1,12,5.8,12,9.9c0,5.6-8,10.1-19.8,11.3C37.6,48.8,37.6,48.8,37.5,48.8z" class="st1"/>
  <path d="M20.6,47.8c-0.1,0-0.2,0-0.3,0c-8.4-2-13.5-5.8-13.5-10.3c0-4.1,4.5-7.8,12.1-9.9c0.7-0.2,1.3,0.2,1.5,0.9   c0.2,0.7-0.2,1.3-0.9,1.5c-6.3,1.7-10.3,4.6-10.3,7.5c0,3.1,4.5,6.2,11.6,7.9c0.7,0.2,1.1,0.8,0.9,1.5   C21.7,47.4,21.2,47.8,20.6,47.8z" class="st1"/>
  <path d="M20.9,52c-0.4,0-0.9-0.1-1.2-0.4c-0.5-0.4-0.8-1.1-0.6-1.8l1.2-6.8c0.1-0.7,0.6-1.3,1.3-1.5   c0.7-0.2,1.4,0,1.9,0.5l4.4,4.6c0.4,0.5,0.6,1.1,0.5,1.7c-0.1,0.6-0.6,1.1-1.2,1.3l-5.6,2.1C21.4,52,21.1,52,20.9,52z M22.5,44.6   l-0.8,4.6l3.8-1.5L22.5,44.6z M26.3,47.5C26.3,47.5,26.3,47.5,26.3,47.5L26.3,47.5z" class="st1"/>
 </g>
</svg>
